<?xml version="1.0" encoding="utf-8"?>
<!-- Generator: Adobe Illustrator 24.2.1, SVG Export Plug-In . SVG Version: 6.00 Build 0)  -->
<svg version="1.1" id="Layer_1" xmlns="http://www.w3.org/2000/svg" xmlns:xlink="http://www.w3.org/1999/xlink" x="0px" y="0px"
	 viewBox="0 0 2931 2931" style="enable-background:new 0 0 2931 2931;" xml:space="preserve">
<style type="text/css">
	.st0{fill:url(#SVGID_1_);}
	.st1{fill:url(#SVGID_2_);}
</style>
<g>
	
		<radialGradient id="SVGID_1_" cx="389.4165" cy="-13.9053" r="3826.3276" gradientTransform="matrix(1 0 0 -1 0 2931)" gradientUnits="userSpaceOnUse">
		<stop  offset="9.000000e-02" style="stop-color:#FA8F21"/>
		<stop  offset="0.78" style="stop-color:#D82D7E"/>
	</radialGradient>
	<path class="st0" d="M977.1,1465.5c0-269.8,218.6-488.6,488.4-488.6s488.6,218.8,488.6,488.6s-218.8,488.6-488.6,488.6
		S977.1,1735.3,977.1,1465.5 M713,1465.5c0,415.6,336.9,752.5,752.5,752.5s752.5-336.9,752.5-752.5S1881.2,713,1465.6,713
		S713,1049.9,713,1465.5 M2072,683.1c0,97.1,78.7,175.9,175.8,175.9c97.1,0,175.9-78.7,175.9-175.8c0-97.1-78.7-175.9-175.8-175.9
		h-0.1C2150.8,507.4,2072.1,586,2072,683.1 M873.5,2658.4c-142.9-6.5-220.5-30.3-272.2-50.4c-68.4-26.6-117.2-58.4-168.6-109.6
		c-51.3-51.3-83.1-100-109.6-168.5c-20.1-51.6-43.9-129.3-50.4-272.2c-7.1-154.5-8.5-200.9-8.5-592.3s1.5-437.7,8.5-592.3
		c6.5-142.9,30.5-220.4,50.4-272.2c26.6-68.4,58.4-117.2,109.6-168.6s100-83.1,168.6-109.6c51.6-20.1,129.3-43.9,272.2-50.4
		c154.5-7.1,200.9-8.5,592.1-8.5s437.7,1.5,592.3,8.5c142.9,6.5,220.4,30.5,272.2,50.4c68.4,26.5,117.2,58.4,168.6,109.6
		c51.3,51.3,83,100.2,109.6,168.6c20.1,51.6,43.9,129.3,50.4,272.2c7.1,154.6,8.5,200.9,8.5,592.3s-1.4,437.7-8.5,592.3
		c-6.5,142.9-30.4,220.5-50.4,272.2c-26.6,68.4-58.4,117.2-109.6,168.5c-51.3,51.2-100.2,83-168.6,109.6
		c-51.6,20.1-129.3,43.9-272.2,50.4c-154.5,7.1-200.9,8.5-592.3,8.5S1027.9,2665.5,873.5,2658.4 M861.3,8.8
		c-156,7.1-262.6,31.8-355.7,68.1c-96.4,37.4-178,87.6-259.6,169s-131.6,163.2-169,259.6C40.7,598.7,16,705.3,8.9,861.3
		C1.7,1017.5,0,1067.5,0,1465.5s1.7,448,8.9,604.2c7.1,156,31.8,262.6,68.1,355.7c37.4,96.4,87.5,178.2,169,259.6
		c81.6,81.4,163.2,131.5,259.6,169c93.3,36.2,199.7,61,355.7,68.1c156.3,7.1,206.2,8.9,604.2,8.9s448-1.7,604.2-8.9
		c156-7.1,262.6-31.8,355.7-68.1c96.4-37.5,178-87.6,259.6-169c81.6-81.4,131.5-163.3,169-259.6c36.2-93.2,61.1-199.7,68.1-355.7
		c7.1-156.4,8.8-206.2,8.8-604.2s-1.7-448-8.8-604.2c-7.1-156-31.8-262.6-68.1-355.7c-37.5-96.4-87.6-178-169-259.6
		c-81.4-81.6-163.3-131.6-259.5-169c-93.3-36.2-199.8-61.1-355.7-68.1c-156.3-7.1-206.2-8.9-604.2-8.9S1017.7,1.6,861.3,8.8"/>
	
		<radialGradient id="SVGID_2_" cx="1777.5938" cy="-145.2194" r="3015.6743" gradientTransform="matrix(1 0 0 -1 0 2931)" gradientUnits="userSpaceOnUse">
		<stop  offset="0.64" style="stop-color:#8C3AAA;stop-opacity:0"/>
		<stop  offset="1" style="stop-color:#8C3AAA"/>
	</radialGradient>
	<path class="st1" d="M977.1,1465.5c0-269.8,218.6-488.6,488.4-488.6s488.6,218.8,488.6,488.6s-218.8,488.6-488.6,488.6
		S977.1,1735.3,977.1,1465.5 M713,1465.5c0,415.6,336.9,752.5,752.5,752.5s752.5-336.9,752.5-752.5S1881.2,713,1465.6,713
		S713,1049.9,713,1465.5 M2072,683.1c0,97.1,78.7,175.9,175.8,175.9c97.1,0,175.9-78.7,175.9-175.8c0-97.1-78.7-175.9-175.8-175.9
		h-0.1C2150.8,507.4,2072.1,586,2072,683.1 M873.5,2658.4c-142.9-6.5-220.5-30.3-272.2-50.4c-68.4-26.6-117.2-58.4-168.6-109.6
		c-51.3-51.3-83.1-100-109.6-168.5c-20.1-51.6-43.9-129.3-50.4-272.2c-7.1-154.5-8.5-200.9-8.5-592.3s1.5-437.7,8.5-592.3
		c6.5-142.9,30.5-220.4,50.4-272.2c26.6-68.4,58.4-117.2,109.6-168.6s100-83.1,168.6-109.6c51.6-20.1,129.3-43.9,272.2-50.4
		c154.5-7.1,200.9-8.5,592.1-8.5s437.7,1.5,592.3,8.5c142.9,6.5,220.4,30.5,272.2,50.4c68.4,26.5,117.2,58.4,168.6,109.6
		c51.3,51.3,83,100.2,109.6,168.6c20.1,51.6,43.9,129.3,50.4,272.2c7.1,154.6,8.5,200.9,8.5,592.3s-1.4,437.7-8.5,592.3
		c-6.5,142.9-30.4,220.5-50.4,272.2c-26.6,68.4-58.4,117.2-109.6,168.5c-51.3,51.2-100.2,83-168.6,109.6
		c-51.6,20.1-129.3,43.9-272.2,50.4c-154.5,7.1-200.9,8.5-592.3,8.5S1027.9,2665.5,873.5,2658.4 M861.3,8.8
		c-156,7.1-262.6,31.8-355.7,68.1c-96.4,37.4-178,87.6-259.6,169s-131.6,163.2-169,259.6C40.7,598.7,16,705.3,8.9,861.3
		C1.7,1017.5,0,1067.5,0,1465.5s1.7,448,8.9,604.2c7.1,156,31.8,262.6,68.1,355.7c37.4,96.4,87.5,178.2,169,259.6
		c81.6,81.4,163.2,131.5,259.6,169c93.3,36.2,199.7,61,355.7,68.1c156.3,7.1,206.2,8.9,604.2,8.9s448-1.7,604.2-8.9
		c156-7.1,262.6-31.8,355.7-68.1c96.4-37.5,178-87.6,259.6-169c81.6-81.4,131.5-163.3,169-259.6c36.2-93.2,61.1-199.7,68.1-355.7
		c7.1-156.4,8.8-206.2,8.8-604.2s-1.7-448-8.8-604.2c-7.1-156-31.8-262.6-68.1-355.7c-37.5-96.4-87.6-178-169-259.6
		c-81.4-81.6-163.3-131.6-259.5-169c-93.3-36.2-199.8-61.1-355.7-68.1c-156.3-7.1-206.2-8.9-604.2-8.9S1017.7,1.6,861.3,8.8"/>
</g>
</svg>
