<?xml version="1.0" encoding="utf-8"?>
<!-- Generator: Adobe Illustrator 24.2.1, SVG Export Plug-In . SVG Version: 6.00 Build 0)  -->
<svg version="1.1" id="Layer_1" xmlns="http://www.w3.org/2000/svg" xmlns:xlink="http://www.w3.org/1999/xlink" x="0px" y="0px"
	 viewBox="0 0 4237.2 2931" style="enable-background:new 0 0 4237.2 2931;" xml:space="preserve">
<style type="text/css">
	.st0{fill:#FF0000;}
</style>
<path class="st0" d="M2212.5,2927.2l-869.3-15.9c-281.5-5.5-563.6,5.5-839.6-51.9C83.8,2773.6,54.1,2353.2,23,2000.5
	C-19.9,1504.6-3.3,999.8,77.6,508.1C123.3,232.2,303,67.5,581,49.6c938.5-65,1883.2-57.3,2819.5-27c98.9,2.8,198.5,18,296,35.3
	c481.3,84.4,493.1,560.9,524.3,962c31.1,405.3,18,812.6-41.5,1215.1c-47.7,333.3-139,612.7-524.3,639.7
	c-482.7,35.3-954.4,63.7-1438.5,54.6C2216.6,2927.2,2213.8,2927.2,2212.5,2927.2z M1701.4,2083.5
	c363.8-208.9,720.6-414.3,1082.3-621.7c-364.5-208.9-720.6-414.3-1082.3-621.7V2083.5z"/>
</svg>
